<?xml version="1.0" encoding="utf-8" standalone="no"?>
<svg id="Layer_1" xmlns="http://www.w3.org/2000/svg" width="52.1" height="56">
  <style>.st0{fill:#706e6e}.st1{fill:#00ab4e}</style>
  <path class="st0" d="M0 36.8h52.1v.7H0zM2.7 44.5H5l2.7 9.1H5.9l-.5-2h-3l-.6 2H0l2.7-9.1zm0 5.7h2.2l-1.1-4-1.1 4zM8.7 47h1.6v.6c.5-.4 1-.7 1.7-.7 1.8 0 2.7 1.5 2.7 3.6 0 1.6-1 3.2-2.7 3.2-.5 0-1.3-.3-1.6-.7v3H8.7v-9zm1.6 4.9c.3.3.7.6 1.3.6 1 0 1.5-.8 1.5-2.1 0-1.4-.5-2.1-1.5-2.1-.7 0-.9.3-1.3.6v3zM15.9 47h1.6v.6c.5-.4 1-.7 1.7-.7 1.8 0 2.7 1.5 2.7 3.6 0 1.6-1 3.2-2.7 3.2-.6 0-1.3-.3-1.6-.7v3H16v-9zm1.7 4.9c.3.3.7.6 1.3.6 1 0 1.5-.8 1.5-2.1 0-1.4-.6-2.1-1.5-2.1-.7 0-.9.3-1.3.6v3zM23.1 53.6V47h1.5v1.1c.4-.8.9-1.2 1.9-1.3v1.7h-.3c-.8 0-1.5.9-1.5 1.1v4h-1.6zM30 46.9c1.8 0 3 1.3 3 3.4 0 2.1-1.1 3.4-3 3.4-1.8 0-3-1.3-3-3.4.1-2.1 1.2-3.4 3-3.4zm0 1.3c-.9 0-1.3.7-1.3 2.1 0 1.5.4 2.1 1.3 2.1s1.3-.7 1.3-2.1c.1-1.4-.4-2.1-1.3-2.1zM33.4 47H35l1.1 4.4 1.2-4.4H39l-2 6.6h-1.7L33.4 47zM41 50.6c0 1.4.7 1.9 1.4 1.9.8 0 1.1-.3 1.5-.8l1.2.7c-.6.9-1.5 1.3-2.9 1.3-1.8 0-2.9-1.3-2.9-3.4 0-2.1 1.1-3.4 3-3.4 1.8 0 2.8 1.4 2.8 3v.6H41zm2.7-1.1c0-.9-.5-1.4-1.3-1.4s-1.3.5-1.3 1.4h2.6zM52.1 53.6h-1.4l-.1-.7c-.6.5-1.1.8-1.8.8-1.8 0-2.7-1.5-2.7-3.6 0-1.6 1-3.2 2.7-3.2.5 0 1.3.3 1.6.7v-3.2H52v9.2zm-1.6-4.9c-.3-.3-.7-.6-1.3-.6-1 0-1.5.8-1.5 2.1 0 1.4.6 2.1 1.5 2.1.7 0 .9-.3 1.3-.6v-3z" />
  <g>
    <path class="st1" d="M8.2 6.8c-3.1 0-5.6 1-6.9 1.7V11c1.3-.7 4.1-1.8 6.3-1.8 2.9 0 5 1 5 4.5v1.8C5.3 15.4 0 17 0 23c0 4.1 2.7 7 8.5 7 3.1 0 5.7-.6 7.5-1.6V14.1c0-5.5-3.7-7.3-7.8-7.3zm4.3 20.4c-.9.5-2.3.8-3.7.8-3.3 0-5.3-1.8-5.3-5 0-4.5 3.4-5.4 9-5.4v9.6zM47.4 27.6c-2.9 0-5.2-1-5.2-4.5V0l-3.5 1.2v6h-2.6v2.3h2.6v13.3c0 5.5 3.7 7.3 7.8 7.3 2 0 3.8-.4 5.5-1.1v-2.6c-1.6.7-3.2 1.2-4.6 1.2zM26.8 6.8c-3.1 0-5.6 1-6.9 1.7V11c1.3-.7 4.1-1.8 6.3-1.8 2.9 0 5 1 5 4.5v1.8C24 15.4 18.7 17 18.7 23c0 4.1 2.7 7 8.5 7 3.1 0 5.7-.6 7.5-1.6V14.1c0-5.5-3.7-7.3-7.9-7.3zm4.4 20.4c-.9.5-2.3.8-3.7.8-3.3 0-5.3-1.8-5.3-5 0-4.5 3.4-5.4 9-5.4v9.6z" />
    <g>
      <path class="st1" d="M43.6 7.2h8.5v2.3h-8.5zM43.6 11h8.5v2.3h-8.5z" />
    </g>
  </g>
</svg>