<svg height="511pt" viewBox="-66 0 511 511.998" width="511pt" xmlns="http://www.w3.org/2000/svg"><path d="m8.011719 442.339844v-408.507813c0-14.53125 11.78125-26.3125 26.316406-26.3125h311.417969c14.53125 0 26.3125 11.78125 26.3125 26.3125v444.339844c0 14.53125-11.78125 26.3125-26.3125 26.3125h-264.054688zm0 0" fill="#e6f2ec"/><path d="m372.066406 478.167969v-444.332031c0-14.539063-11.785156-26.320313-26.320312-26.320313h-26.722656c14.539062 0 26.320312 11.78125 26.320312 26.320313v444.332031c0 14.539062-11.78125 26.320312-26.320312 26.320312h26.722656c14.535156 0 26.320312-11.78125 26.320312-26.320312zm0 0" fill="#d5e2db"/><path d="m8.011719 442.339844 73.679687 62.144531v-57.132813c0-2.769531-2.242187-5.011718-5.007812-5.011718zm0 0" fill="#bececc"/><path d="m8.011719 33.835938v109.96875h364.054687v-109.96875c0-14.539063-11.785156-26.320313-26.320312-26.320313h-311.414063c-14.535156 0-26.320312 11.78125-26.320312 26.320313zm0 0" fill="#ff5426"/><path d="m372.066406 33.835938v109.96875h-27.203125v-109.96875c0-14.539063-11.78125-26.320313-26.320312-26.320313h27.203125c14.535156 0 26.320312 11.78125 26.320312 26.320313zm0 0" fill="#f04424"/><path d="m337.242188 436.632812c0 20.285157-16.445313 36.726563-36.730469 36.726563-20.285157 0-36.730469-16.441406-36.730469-36.726563 0-20.289062 16.445312-36.730468 36.730469-36.730468 20.285156 0 36.730469 16.441406 36.730469 36.730468zm0 0" fill="#fa0"/><path d="m337.242188 436.632812c0 20.28125-16.445313 36.726563-36.730469 36.726563-8.441407 0-16.21875-2.847656-22.421875-7.632813 2.878906.734376 5.902344 1.113282 9.007812 1.113282 20.285156 0 36.730469-16.4375 36.730469-36.730469 0-11.84375-5.601563-22.378906-14.308594-29.09375 15.929688 4.011719 27.722657 18.4375 27.722657 35.617187zm0 0" fill="#ff9500"/><path d="m47.894531 193.398438h25.597657c4.148437 0 7.511718-3.363282 7.511718-7.511719 0-4.152344-3.363281-7.515625-7.511718-7.515625h-25.597657c-4.148437 0-7.511719 3.363281-7.511719 7.515625-.003906 4.148437 3.359376 7.511719 7.511719 7.511719zm0 0"/><path d="m98.425781 185.886719c0 4.148437 3.363281 7.511719 7.511719 7.511719h62.226562c4.148438 0 7.515626-3.363282 7.515626-7.511719 0-4.152344-3.367188-7.515625-7.515626-7.515625h-62.226562c-4.148438 0-7.511719 3.363281-7.511719 7.515625zm0 0"/><path d="m202.894531 193.398438h20.039063c4.152344 0 7.515625-3.363282 7.515625-7.511719 0-4.152344-3.363281-7.515625-7.515625-7.515625h-20.039063c-4.148437 0-7.511719 3.363281-7.511719 7.515625 0 4.148437 3.363282 7.511719 7.511719 7.511719zm0 0"/><path d="m257.828125 193.398438h20.039063c4.148437 0 7.511718-3.363282 7.511718-7.511719 0-4.152344-3.363281-7.515625-7.511718-7.515625h-20.039063c-4.148437 0-7.515625 3.363281-7.515625 7.515625 0 4.148437 3.367188 7.511719 7.515625 7.511719zm0 0"/><path d="m312.144531 193.398438h20.039063c4.152344 0 7.511718-3.363282 7.511718-7.511719 0-4.152344-3.363281-7.515625-7.511718-7.515625h-20.039063c-4.148437 0-7.511719 3.363281-7.511719 7.515625 0 4.148437 3.363282 7.511719 7.511719 7.511719zm0 0"/><path d="m47.894531 231.46875h25.597657c4.148437 0 7.511718-3.363281 7.511718-7.511719 0-4.152343-3.363281-7.515625-7.511718-7.515625h-25.597657c-4.148437 0-7.511719 3.363282-7.511719 7.515625-.003906 4.148438 3.359376 7.511719 7.511719 7.511719zm0 0"/><path d="m105.9375 231.46875h62.226562c4.152344 0 7.515626-3.363281 7.515626-7.511719 0-4.152343-3.363282-7.515625-7.515626-7.515625h-62.226562c-4.148438 0-7.511719 3.363282-7.511719 7.515625 0 4.148438 3.363281 7.511719 7.511719 7.511719zm0 0"/><path d="m202.894531 231.46875h20.039063c4.152344 0 7.515625-3.363281 7.515625-7.511719 0-4.152343-3.363281-7.515625-7.515625-7.515625h-20.039063c-4.148437 0-7.511719 3.363282-7.511719 7.515625 0 4.148438 3.363282 7.511719 7.511719 7.511719zm0 0"/><path d="m257.828125 231.46875h20.039063c4.148437 0 7.511718-3.363281 7.511718-7.511719 0-4.152343-3.363281-7.515625-7.511718-7.515625h-20.039063c-4.148437 0-7.515625 3.363282-7.515625 7.515625 0 4.148438 3.367188 7.511719 7.515625 7.511719zm0 0"/><path d="m312.144531 231.46875h20.039063c4.152344 0 7.511718-3.363281 7.511718-7.511719 0-4.152343-3.363281-7.515625-7.511718-7.515625h-20.039063c-4.148437 0-7.511719 3.363282-7.511719 7.515625 0 4.148438 3.363282 7.511719 7.511719 7.511719zm0 0"/><path d="m81.007812 262.027344c0-4.148438-3.367187-7.511719-7.515624-7.511719h-25.597657c-4.148437 0-7.511719 3.363281-7.511719 7.511719 0 4.152344 3.363282 7.515625 7.511719 7.515625h25.597657c4.148437 0 7.515624-3.363281 7.515624-7.515625zm0 0"/><path d="m105.9375 269.542969h62.226562c4.152344 0 7.515626-3.363281 7.515626-7.515625 0-4.148438-3.363282-7.511719-7.515626-7.511719h-62.226562c-4.148438 0-7.511719 3.363281-7.511719 7.511719 0 4.152344 3.363281 7.515625 7.511719 7.515625zm0 0"/><path d="m202.894531 269.542969h20.039063c4.152344 0 7.515625-3.363281 7.515625-7.515625 0-4.148438-3.363281-7.511719-7.515625-7.511719h-20.039063c-4.148437 0-7.511719 3.363281-7.511719 7.511719 0 4.152344 3.363282 7.515625 7.511719 7.515625zm0 0"/><path d="m257.828125 269.542969h20.039063c4.148437 0 7.511718-3.363281 7.511718-7.515625 0-4.148438-3.363281-7.511719-7.511718-7.511719h-20.039063c-4.148437 0-7.515625 3.363281-7.515625 7.511719 0 4.152344 3.367188 7.515625 7.515625 7.515625zm0 0"/><path d="m312.144531 269.542969h20.039063c4.152344 0 7.511718-3.363281 7.511718-7.515625 0-4.148438-3.363281-7.511719-7.511718-7.511719h-20.039063c-4.148437 0-7.511719 3.363281-7.511719 7.511719 0 4.152344 3.363282 7.515625 7.511719 7.515625zm0 0"/><path d="m85.371094 334.527344v-21.554688c8.203125.613282 11.023437 4.53125 14.449218 4.53125 4.53125 0 6.492188-5.632812 6.492188-8.449218 0-7.105469-12.980469-9.433594-20.941406-9.675782v-3.1875c0-1.589844-2.082032-3.058594-4.164063-3.058594-2.328125 0-4.164062 1.46875-4.164062 3.058594v3.429688c-12.246094 1.59375-23.757813 8.328125-23.757813 23.882812 0 15.675782 12.613282 20.453125 23.757813 24.617188v24.371094c-10.777344-1.222657-14.449219-9.183594-19.105469-9.183594-3.796875 0-6.859375 5.144531-6.859375 8.574218 0 6.855469 11.144531 14.816407 25.964844 15.183594v3.429688c0 1.59375 1.835937 3.0625 4.164062 3.0625 2.082031 0 4.164063-1.46875 4.164063-3.0625v-3.796875c13.714844-2.203125 23.144531-10.898438 23.144531-25.964844.003906-16.652344-12.246094-22.164063-23.144531-26.207031zm-7.347656-2.691406c-5.636719-2.207032-9.796876-4.53125-9.796876-9.921876 0-4.652343 3.671876-7.59375 9.796876-8.574218zm6.367187 40.535156v-21.308594c5.265625 2.328125 9.1875 5.265625 9.1875 11.265625-.003906 5.757813-3.796875 8.941406-9.1875 10.042969zm0 0"/><path d="m205.164062 306.566406h-59.808593c-4.148438 0-7.511719 3.363282-7.511719 7.515625 0 4.148438 3.363281 7.511719 7.511719 7.511719h59.808593c4.148438 0 7.515626-3.363281 7.515626-7.511719 0-4.148437-3.363282-7.515625-7.515626-7.515625zm0 0"/><path d="m239.484375 321.597656h61.027344c4.152343 0 7.515625-3.367187 7.515625-7.515625 0-4.148437-3.367188-7.515625-7.515625-7.515625h-61.027344c-4.148437 0-7.511719 3.367188-7.511719 7.515625 0 4.148438 3.363282 7.515625 7.511719 7.515625zm0 0"/><path d="m137.84375 346.96875c0 4.152344 3.363281 7.515625 7.511719 7.515625h132.960937c4.148438 0 7.511719-3.363281 7.511719-7.515625 0-4.148438-3.363281-7.511719-7.511719-7.511719h-132.960937c-4.148438 0-7.511719 3.363281-7.511719 7.511719zm0 0"/><path d="m186.101562 372.566406h-40.746093c-4.148438 0-7.511719 3.363282-7.511719 7.515625 0 4.148438 3.363281 7.511719 7.511719 7.511719h40.746093c4.152344 0 7.515626-3.363281 7.515626-7.511719 0-4.152343-3.363282-7.515625-7.515626-7.515625zm0 0"/><path d="m263.847656 380.082031c0-4.152343-3.367187-7.515625-7.515625-7.515625h-35.417969c-4.152343 0-7.515624 3.363282-7.515624 7.515625 0 4.148438 3.367187 7.511719 7.515624 7.511719h35.417969c4.152344 0 7.515625-3.363281 7.515625-7.511719zm0 0"/><path d="m345.746094 0h-311.414063c-9.910156 0-18.839843 4.285156-25.03125 11.097656-5.464843 6.011719-8.800781 13.992188-8.800781 22.738282v109.96875 298.535156c0 2.429687.867188 4.210937 2.667969 5.746094 9.792969 8.257812 19.582031 16.515624 29.375 24.773437 13.527343 11.410156 27.054687 22.820313 40.585937 34.230469 2.515625 2.125 5.003906 4.90625 8.5625 4.90625h264.054688c18.652344 0 33.828125-15.175782 33.828125-33.828125v-334.269531c0-.03125.003906-.0625.003906-.09375v-109.96875c0-18.65625-15.175781-33.835938-33.832031-33.835938zm-271.566406 488.316406-10.140626-8.546875-35.460937-29.914062h45.601563zm290.367187-352.027344h-218.089844c-4.152343 0-7.515625 3.363282-7.515625 7.515626 0 4.148437 3.363282 7.511718 7.515625 7.511718h218.089844v326.855469c0 10.363281-8.433594 18.796875-18.800781 18.796875h-256.539063v-49.621094c0-6.90625-5.617187-12.523437-12.523437-12.523437h-61.15625v-283.507813h96.03125c4.148437 0 7.511718-3.363281 7.511718-7.511718 0-4.152344-3.363281-7.515626-7.511718-7.515626h-96.03125v-102.453124c0-3.890626 1.1875-7.507813 3.214844-10.507813 3.382812-5.003906 9.109374-8.296875 15.585937-8.296875h311.417969c10.367187 0 18.800781 8.433594 18.800781 18.800781zm0 0"/><path d="m158.519531 42.734375c0-3.085937-1.429687-6.390625-4.515625-6.390625h-46.621094c-3.085937 0-4.519531 3.304688-4.519531 6.390625 0 3.527344 1.65625 6.503906 4.519531 6.503906h16.199219v63.152344c0 2.972656 3.527344 4.515625 7.164063 4.515625 3.527344 0 7.164062-1.542969 7.164062-4.515625v-63.152344h16.09375c2.863282 0 4.515625-3.085937 4.515625-6.503906zm0 0"/><path d="m194.230469 40.53125c-.992188-3.304688-5.070313-4.847656-9.257813-4.847656-4.078125 0-8.15625 1.542968-9.148437 4.847656l-21.273438 69.324219c-.109375.441406-.21875.878906-.21875 1.101562 0 3.527344 5.179688 5.949219 9.039063 5.949219 2.421875 0 4.296875-.769531 4.847656-2.863281l4.1875-14.660157h25.238281l4.191407 14.660157c.546874 2.09375 2.421874 2.863281 4.847656 2.863281 3.855468 0 9.035156-2.535156 9.035156-5.949219 0-.332031-.109375-.660156-.21875-1.101562zm-18.847657 47.613281 9.589844-33.835937 9.585938 33.835937zm0 0"/><path d="m257.15625 76.570312 18.40625-30.96875c.664062-1.101562.992188-2.09375.992188-3.085937 0-3.859375-5.070313-6.722656-9.148438-6.722656-2.3125 0-3.746094 1.210937-4.847656 3.085937l-14.992188 27-14.984375-27c-.992187-1.875-2.535156-3.085937-4.742187-3.085937-4.078125 0-9.144532 2.863281-9.144532 6.722656 0 .992187.328126 1.984375.988282 3.085937l18.40625 30.96875-19.066406 31.078126c-.550782.992187-.878907 1.875-.878907 2.648437 0 3.96875 5.507813 7.164063 9.367188 7.164063 1.761719 0 3.195312-.992188 3.96875-2.316407l16.085937-28.324219 16.203125 28.324219c.660157 1.324219 2.09375 2.316407 3.859375 2.316407 3.964844 0 9.367188-3.199219 9.367188-7.164063 0-.773437-.222656-1.65625-.769532-2.648437zm0 0"/><path d="m300.511719 392.386719c-2.242188 0-4.5.171875-6.707031.507812-4.105469.625-6.921876 4.457031-6.296876 8.558594s4.453126 6.914063 8.558594 6.296875c1.460938-.222656 2.957032-.335938 4.445313-.335938 16.109375 0 29.214843 13.109376 29.214843 29.21875 0 16.109376-13.105468 29.214844-29.214843 29.214844s-29.214844-13.105468-29.214844-29.214844c0-4.636718 1.050781-9.0625 3.125-13.164062 1.871094-3.703125.386719-8.222656-3.316406-10.09375s-8.226563-.386719-10.097657 3.316406c-3.144531 6.21875-4.738281 12.929688-4.738281 19.941406 0 24.394532 19.84375 44.242188 44.242188 44.242188 24.394531 0 44.242187-19.847656 44.242187-44.242188.003906-24.398437-19.847656-44.246093-44.242187-44.246093zm0 0"/></svg>